<svg width="224" height="224" viewBox="0 0 224 224" fill="none" xmlns="http://www.w3.org/2000/svg">
<g filter="url(#filter0_d_366_4434)">
<circle cx="112" cy="112" r="19" fill="white"/>
<circle cx="112" cy="112" r="19" stroke="#F5F5F5"/>
</g>
<g clip-path="url(#clip0_366_4434)">
<path d="M124 112C124 105.373 118.627 100 112 100C105.373 100 100 105.373 100 112C100 117.99 104.388 122.954 110.125 123.854V115.469H107.078V112H110.125V109.356C110.125 106.349 111.917 104.688 114.658 104.688C115.971 104.688 117.344 104.922 117.344 104.922V107.875H115.831C114.34 107.875 113.875 108.8 113.875 109.749V112H117.203L116.671 115.469H113.875V123.854C119.612 122.954 124 117.99 124 112Z" fill="#1877F2"/>
<path d="M116.671 115.469L117.203 112H113.875V109.749C113.875 108.8 114.34 107.875 115.831 107.875H117.344V104.922C117.344 104.922 115.97 104.688 114.658 104.688C111.917 104.688 110.125 106.349 110.125 109.356V112H107.078V115.469H110.125V123.854C110.745 123.951 111.372 124 112 124C112.628 124 113.255 123.951 113.875 123.854V115.469H116.671Z" fill="white"/>
</g>
<defs>
<filter id="filter0_d_366_4434" x="0.300002" y="0.300002" width="223.4" height="223.4" filterUnits="userSpaceOnUse" color-interpolation-filters="sRGB">
<feFlood flood-opacity="0" result="BackgroundImageFix"/>
<feColorMatrix in="SourceAlpha" type="matrix" values="0 0 0 0 0 0 0 0 0 0 0 0 0 0 0 0 0 0 127 0" result="hardAlpha"/>
<feMorphology radius="0.1" operator="dilate" in="SourceAlpha" result="effect1_dropShadow_366_4434"/>
<feOffset/>
<feGaussianBlur stdDeviation="46.05"/>
<feComposite in2="hardAlpha" operator="out"/>
<feColorMatrix type="matrix" values="0 0 0 0 0 0 0 0 0 0 0 0 0 0 0 0 0 0 0.25 0"/>
<feBlend mode="normal" in2="BackgroundImageFix" result="effect1_dropShadow_366_4434"/>
<feBlend mode="normal" in="SourceGraphic" in2="effect1_dropShadow_366_4434" result="shape"/>
</filter>
<clipPath id="clip0_366_4434">
<rect width="24" height="24" fill="white" transform="translate(100 100)"/>
</clipPath>
</defs>
</svg>
