<svg width="224" height="224" viewBox="0 0 224 224" fill="none" xmlns="http://www.w3.org/2000/svg">
<g filter="url(#filter0_d_366_4427)">
<circle cx="112" cy="112" r="19" fill="white"/>
<circle cx="112" cy="112" r="19" stroke="#F5F5F5"/>
</g>
<g clip-path="url(#clip0_366_4427)">
<path d="M123.989 112.734C123.989 111.71 123.907 110.962 123.73 110.187H112.239V114.81H118.984C118.848 115.959 118.114 117.689 116.482 118.852L116.459 119.006L120.093 121.871L120.344 121.897C122.656 119.724 123.989 116.526 123.989 112.734Z" fill="#4285F4"/>
<path d="M112.239 124.914C115.544 124.914 118.318 123.807 120.344 121.897L116.482 118.852C115.449 119.585 114.061 120.097 112.239 120.097C109.003 120.097 106.256 117.924 105.277 114.921L105.133 114.933L101.355 117.909L101.306 118.049C103.318 122.118 107.452 124.914 112.239 124.914Z" fill="#34A853"/>
<path d="M105.276 114.921C105.018 114.146 104.868 113.315 104.868 112.457C104.868 111.599 105.018 110.769 105.263 109.993L105.256 109.828L101.431 106.805L101.305 106.865C100.476 108.554 100 110.45 100 112.457C100 114.464 100.476 116.36 101.305 118.049L105.276 114.921Z" fill="#FBBC05"/>
<path d="M112.239 104.817C114.537 104.817 116.088 105.827 116.972 106.671L120.426 103.239C118.304 101.232 115.544 100 112.239 100C107.452 100 103.318 102.796 101.306 106.865L105.263 109.993C106.256 106.99 109.003 104.817 112.239 104.817Z" fill="#EB4335"/>
</g>
<defs>
<filter id="filter0_d_366_4427" x="0.300002" y="0.300002" width="223.4" height="223.4" filterUnits="userSpaceOnUse" color-interpolation-filters="sRGB">
<feFlood flood-opacity="0" result="BackgroundImageFix"/>
<feColorMatrix in="SourceAlpha" type="matrix" values="0 0 0 0 0 0 0 0 0 0 0 0 0 0 0 0 0 0 127 0" result="hardAlpha"/>
<feMorphology radius="0.1" operator="dilate" in="SourceAlpha" result="effect1_dropShadow_366_4427"/>
<feOffset/>
<feGaussianBlur stdDeviation="46.05"/>
<feComposite in2="hardAlpha" operator="out"/>
<feColorMatrix type="matrix" values="0 0 0 0 0 0 0 0 0 0 0 0 0 0 0 0 0 0 0.25 0"/>
<feBlend mode="normal" in2="BackgroundImageFix" result="effect1_dropShadow_366_4427"/>
<feBlend mode="normal" in="SourceGraphic" in2="effect1_dropShadow_366_4427" result="shape"/>
</filter>
<clipPath id="clip0_366_4427">
<rect width="24" height="25" fill="white" transform="translate(100 100)"/>
</clipPath>
</defs>
</svg>
