<svg width="139" height="57" viewBox="0 0 139 57" fill="none" xmlns="http://www.w3.org/2000/svg">
<g filter="url(#filter0_f_71_810)">
<path d="M22.264 22.104C22.264 24.504 21.552 26.416 20.128 27.84C18.528 29.536 16.424 30.384 13.816 30.384C11.32 30.384 9.208 29.52 7.48 27.792C5.752 26.064 4.888 23.936 4.888 21.408C4.888 18.88 5.752 16.752 7.48 15.024C9.208 13.296 11.32 12.432 13.816 12.432C15.08 12.432 16.272 12.656 17.392 13.104C18.512 13.552 19.432 14.184 20.152 15L18.568 16.584C18.04 15.944 17.352 15.448 16.504 15.096C15.672 14.728 14.776 14.544 13.816 14.544C11.944 14.544 10.36 15.192 9.064 16.488C7.784 17.8 7.144 19.44 7.144 21.408C7.144 23.376 7.784 25.016 9.064 26.328C10.36 27.624 11.944 28.272 13.816 28.272C15.528 28.272 16.952 27.792 18.088 26.832C19.224 25.872 19.88 24.552 20.056 22.872H13.816V20.808H22.144C22.224 21.256 22.264 21.688 22.264 22.104ZM24.9468 30V12.816H30.2028C32.8268 12.816 34.9308 13.608 36.5148 15.192C38.1148 16.776 38.9148 18.848 38.9148 21.408C38.9148 23.984 38.1148 26.064 36.5148 27.648C34.9308 29.216 32.8268 30 30.2028 30H24.9468ZM27.1548 14.928V27.888H30.2028C32.2028 27.888 33.7788 27.32 34.9308 26.184C36.0828 25.032 36.6588 23.44 36.6588 21.408C36.6588 19.392 36.0828 17.808 34.9308 16.656C33.7788 15.504 32.2028 14.928 30.2028 14.928H27.1548ZM58.0765 22.104C58.0765 24.504 57.3645 26.416 55.9405 27.84C54.3405 29.536 52.2365 30.384 49.6285 30.384C47.1325 30.384 45.0205 29.52 43.2925 27.792C41.5645 26.064 40.7005 23.936 40.7005 21.408C40.7005 18.88 41.5645 16.752 43.2925 15.024C45.0205 13.296 47.1325 12.432 49.6285 12.432C50.8925 12.432 52.0845 12.656 53.2045 13.104C54.3245 13.552 55.2445 14.184 55.9645 15L54.3805 16.584C53.8525 15.944 53.1645 15.448 52.3165 15.096C51.4845 14.728 50.5885 14.544 49.6285 14.544C47.7565 14.544 46.1725 15.192 44.8765 16.488C43.5965 17.8 42.9565 19.44 42.9565 21.408C42.9565 23.376 43.5965 25.016 44.8765 26.328C46.1725 27.624 47.7565 28.272 49.6285 28.272C51.3405 28.272 52.7645 27.792 53.9005 26.832C55.0365 25.872 55.6925 24.552 55.8685 22.872H49.6285V20.808H57.9565C58.0365 21.256 58.0765 21.688 58.0765 22.104ZM68.8473 30.384C66.3033 30.384 64.1753 29.528 62.4633 27.816C60.7673 26.104 59.9193 23.968 59.9193 21.408C59.9193 18.848 60.7673 16.72 62.4633 15.024C64.1593 13.296 66.2873 12.432 68.8473 12.432C71.4393 12.432 73.5433 13.368 75.1593 15.24L73.5753 16.776C72.3433 15.288 70.7673 14.544 68.8473 14.544C66.9433 14.544 65.3513 15.184 64.0713 16.464C62.8073 17.728 62.1753 19.376 62.1753 21.408C62.1753 23.44 62.8073 25.088 64.0713 26.352C65.3513 27.632 66.9433 28.272 68.8473 28.272C70.8473 28.272 72.5833 27.432 74.0553 25.752L75.6633 27.312C74.8473 28.288 73.8473 29.048 72.6633 29.592C71.4793 30.12 70.2073 30.384 68.8473 30.384ZM85.7251 30H83.5171V12.816H86.2051L94.5571 26.184H94.6531L94.5571 22.872V12.816H96.7651V30H94.4611L85.7251 15.984H85.6291L85.7251 19.296V30ZM102.436 30H100.228V12.816H102.436V30ZM111.756 14.928V30H109.548V14.928H104.748V12.816H116.556V14.928H111.756ZM129.234 25.416C129.234 26.92 128.682 28.128 127.578 29.04C126.458 29.936 125.098 30.384 123.498 30.384C122.074 30.384 120.818 29.968 119.73 29.136C118.642 28.304 117.89 27.168 117.474 25.728L119.586 24.864C119.73 25.376 119.93 25.84 120.186 26.256C120.442 26.672 120.738 27.032 121.074 27.336C121.426 27.624 121.81 27.856 122.226 28.032C122.642 28.192 123.082 28.272 123.546 28.272C124.554 28.272 125.378 28.016 126.018 27.504C126.658 26.976 126.978 26.28 126.978 25.416C126.978 24.696 126.714 24.08 126.186 23.568C125.69 23.072 124.762 22.592 123.402 22.128C122.026 21.632 121.17 21.296 120.834 21.12C119.01 20.192 118.098 18.824 118.098 17.016C118.098 15.752 118.602 14.672 119.61 13.776C120.634 12.88 121.89 12.432 123.378 12.432C124.69 12.432 125.826 12.768 126.786 13.44C127.746 14.096 128.386 14.92 128.706 15.912L126.642 16.776C126.45 16.136 126.066 15.608 125.49 15.192C124.93 14.76 124.242 14.544 123.426 14.544C122.562 14.544 121.834 14.784 121.242 15.264C120.65 15.712 120.354 16.296 120.354 17.016C120.354 17.608 120.586 18.12 121.05 18.552C121.562 18.984 122.674 19.496 124.386 20.088C126.13 20.68 127.37 21.408 128.106 22.272C128.858 23.12 129.234 24.168 129.234 25.416Z" fill="#A1A1AA"/>
<path d="M51.8271 46H50.3551V34.544H51.8271L55.8111 41.52H55.8751L59.8591 34.544H61.3311V46H59.8591V39.2L59.9231 37.28H59.8591L56.2751 43.568H55.4111L51.8271 37.28H51.7631L51.8271 39.2V46ZM64.218 43.6C64.218 43.984 64.378 44.304 64.698 44.56C65.0287 44.816 65.4127 44.944 65.85 44.944C66.4687 44.944 67.018 44.7147 67.498 44.256C67.9887 43.7973 68.234 43.2587 68.234 42.64C67.7753 42.2773 67.1353 42.096 66.314 42.096C65.7167 42.096 65.2153 42.24 64.81 42.528C64.4153 42.816 64.218 43.1733 64.218 43.6ZM66.122 37.904C67.21 37.904 68.0687 38.1973 68.698 38.784C69.3273 39.36 69.642 40.1547 69.642 41.168V46H68.234V44.912H68.17C67.562 45.808 66.7513 46.256 65.738 46.256C64.874 46.256 64.1487 46 63.562 45.488C62.986 44.976 62.698 44.336 62.698 43.568C62.698 42.7573 63.002 42.112 63.61 41.632C64.2287 41.152 65.05 40.912 66.074 40.912C66.9487 40.912 67.6687 41.072 68.234 41.392V41.056C68.234 40.544 68.0313 40.112 67.626 39.76C67.2207 39.3973 66.746 39.216 66.202 39.216C65.3807 39.216 64.73 39.5627 64.25 40.256L62.954 39.44C63.6687 38.416 64.7247 37.904 66.122 37.904ZM72.7743 46H71.3023V38.16H72.7103V39.44H72.7743C72.9236 39.024 73.2276 38.672 73.6863 38.384C74.1556 38.0853 74.6143 37.936 75.0623 37.936C75.4889 37.936 75.8516 38 76.1503 38.128L75.7023 39.552C75.5209 39.4773 75.2329 39.44 74.8383 39.44C74.2836 39.44 73.7983 39.664 73.3823 40.112C72.9769 40.56 72.7743 41.0827 72.7743 41.68V46ZM84.0889 46H82.3129L79.8649 42.304L78.6649 43.488V46H77.1929V34.544H78.6649V41.6L82.0569 38.16H83.9449V38.224L80.8889 41.264L84.0889 45.936V46ZM88.2129 46.256C87.0609 46.256 86.1115 45.8613 85.3649 45.072C84.6182 44.2827 84.2449 43.2853 84.2449 42.08C84.2449 40.8853 84.6075 39.8933 85.3329 39.104C86.0582 38.304 86.9862 37.904 88.1169 37.904C89.2795 37.904 90.2022 38.2827 90.8849 39.04C91.5782 39.7867 91.9249 40.8373 91.9249 42.192L91.9089 42.352H85.7489C85.7702 43.12 86.0262 43.7387 86.5169 44.208C87.0075 44.6773 87.5942 44.912 88.2769 44.912C89.2155 44.912 89.9515 44.4427 90.4849 43.504L91.7969 44.144C91.4449 44.8053 90.9542 45.3227 90.3249 45.696C89.7062 46.0693 89.0022 46.256 88.2129 46.256ZM85.8609 41.136H90.3569C90.3142 40.592 90.0902 40.144 89.6849 39.792C89.2902 39.4293 88.7569 39.248 88.0849 39.248C87.5302 39.248 87.0502 39.4187 86.6449 39.76C86.2502 40.1013 85.9889 40.56 85.8609 41.136ZM96.1406 46.128C95.5006 46.128 94.9673 45.9307 94.5406 45.536C94.1246 45.1413 93.9113 44.592 93.9006 43.888V39.504H92.5246V38.16H93.9006V35.76H95.3726V38.16H97.2926V39.504H95.3726V43.408C95.3726 43.9307 95.474 44.288 95.6766 44.48C95.8793 44.6613 96.1086 44.752 96.3646 44.752C96.482 44.752 96.594 44.7413 96.7006 44.72C96.818 44.688 96.9246 44.6507 97.0206 44.608L97.4846 45.92C97.1006 46.0587 96.6526 46.128 96.1406 46.128ZM102.611 44.912C103.315 44.912 103.907 44.6453 104.387 44.112C104.867 43.5893 105.107 42.912 105.107 42.08C105.107 41.2587 104.867 40.5813 104.387 40.048C103.907 39.5147 103.315 39.248 102.611 39.248C101.896 39.248 101.299 39.5147 100.819 40.048C100.35 40.5813 100.115 41.2587 100.115 42.08C100.115 42.912 100.35 43.5947 100.819 44.128C101.299 44.6507 101.896 44.912 102.611 44.912ZM102.851 46.256C102.275 46.256 101.747 46.1333 101.267 45.888C100.798 45.6427 100.435 45.3173 100.179 44.912H100.115L100.179 46V49.456H98.707V38.16H100.115V39.248H100.179C100.435 38.8427 100.798 38.5173 101.267 38.272C101.747 38.0267 102.275 37.904 102.851 37.904C103.886 37.904 104.76 38.3093 105.475 39.12C106.211 39.9413 106.579 40.928 106.579 42.08C106.579 43.2427 106.211 44.2293 105.475 45.04C104.76 45.8507 103.886 46.256 102.851 46.256ZM109.243 34.544V46H107.771V34.544H109.243ZM112.031 43.6C112.031 43.984 112.191 44.304 112.511 44.56C112.841 44.816 113.225 44.944 113.663 44.944C114.281 44.944 114.831 44.7147 115.311 44.256C115.801 43.7973 116.047 43.2587 116.047 42.64C115.588 42.2773 114.948 42.096 114.127 42.096C113.529 42.096 113.028 42.24 112.623 42.528C112.228 42.816 112.031 43.1733 112.031 43.6ZM113.935 37.904C115.023 37.904 115.881 38.1973 116.511 38.784C117.14 39.36 117.455 40.1547 117.455 41.168V46H116.047V44.912H115.983C115.375 45.808 114.564 46.256 113.551 46.256C112.687 46.256 111.961 46 111.375 45.488C110.799 44.976 110.511 44.336 110.511 43.568C110.511 42.7573 110.815 42.112 111.423 41.632C112.041 41.152 112.863 40.912 113.887 40.912C114.761 40.912 115.481 41.072 116.047 41.392V41.056C116.047 40.544 115.844 40.112 115.439 39.76C115.033 39.3973 114.559 39.216 114.015 39.216C113.193 39.216 112.543 39.5627 112.062 40.256L110.767 39.44C111.481 38.416 112.537 37.904 113.935 37.904ZM122.621 46.256C121.458 46.256 120.493 45.8613 119.725 45.072C118.967 44.2613 118.589 43.264 118.589 42.08C118.589 40.8747 118.967 39.8773 119.725 39.088C120.493 38.2987 121.458 37.904 122.621 37.904C123.421 37.904 124.119 38.1067 124.717 38.512C125.314 38.9067 125.762 39.456 126.061 40.16L124.717 40.72C124.301 39.7387 123.57 39.248 122.525 39.248C121.853 39.248 121.271 39.52 120.781 40.064C120.301 40.608 120.061 41.28 120.061 42.08C120.061 42.88 120.301 43.552 120.781 44.096C121.271 44.64 121.853 44.912 122.525 44.912C123.602 44.912 124.359 44.4213 124.797 43.44L126.109 44C125.821 44.704 125.367 45.2587 124.749 45.664C124.141 46.0587 123.431 46.256 122.621 46.256ZM130.838 46.256C129.686 46.256 128.737 45.8613 127.99 45.072C127.243 44.2827 126.87 43.2853 126.87 42.08C126.87 40.8853 127.233 39.8933 127.958 39.104C128.683 38.304 129.611 37.904 130.742 37.904C131.905 37.904 132.827 38.2827 133.51 39.04C134.203 39.7867 134.55 40.8373 134.55 42.192L134.534 42.352H128.374C128.395 43.12 128.651 43.7387 129.142 44.208C129.633 44.6773 130.219 44.912 130.902 44.912C131.841 44.912 132.577 44.4427 133.11 43.504L134.422 44.144C134.07 44.8053 133.579 45.3227 132.95 45.696C132.331 46.0693 131.627 46.256 130.838 46.256ZM128.486 41.136H132.982C132.939 40.592 132.715 40.144 132.31 39.792C131.915 39.4293 131.382 39.248 130.71 39.248C130.155 39.248 129.675 39.4187 129.27 39.76C128.875 40.1013 128.614 40.56 128.486 41.136Z" fill="#0176FA"/>
</g>
<path d="M22.264 22.104C22.264 24.504 21.552 26.416 20.128 27.84C18.528 29.536 16.424 30.384 13.816 30.384C11.32 30.384 9.208 29.52 7.48 27.792C5.752 26.064 4.888 23.936 4.888 21.408C4.888 18.88 5.752 16.752 7.48 15.024C9.208 13.296 11.32 12.432 13.816 12.432C15.08 12.432 16.272 12.656 17.392 13.104C18.512 13.552 19.432 14.184 20.152 15L18.568 16.584C18.04 15.944 17.352 15.448 16.504 15.096C15.672 14.728 14.776 14.544 13.816 14.544C11.944 14.544 10.36 15.192 9.064 16.488C7.784 17.8 7.144 19.44 7.144 21.408C7.144 23.376 7.784 25.016 9.064 26.328C10.36 27.624 11.944 28.272 13.816 28.272C15.528 28.272 16.952 27.792 18.088 26.832C19.224 25.872 19.88 24.552 20.056 22.872H13.816V20.808H22.144C22.224 21.256 22.264 21.688 22.264 22.104ZM24.9468 30V12.816H30.2028C32.8268 12.816 34.9308 13.608 36.5148 15.192C38.1148 16.776 38.9148 18.848 38.9148 21.408C38.9148 23.984 38.1148 26.064 36.5148 27.648C34.9308 29.216 32.8268 30 30.2028 30H24.9468ZM27.1548 14.928V27.888H30.2028C32.2028 27.888 33.7788 27.32 34.9308 26.184C36.0828 25.032 36.6588 23.44 36.6588 21.408C36.6588 19.392 36.0828 17.808 34.9308 16.656C33.7788 15.504 32.2028 14.928 30.2028 14.928H27.1548ZM58.0765 22.104C58.0765 24.504 57.3645 26.416 55.9405 27.84C54.3405 29.536 52.2365 30.384 49.6285 30.384C47.1325 30.384 45.0205 29.52 43.2925 27.792C41.5645 26.064 40.7005 23.936 40.7005 21.408C40.7005 18.88 41.5645 16.752 43.2925 15.024C45.0205 13.296 47.1325 12.432 49.6285 12.432C50.8925 12.432 52.0845 12.656 53.2045 13.104C54.3245 13.552 55.2445 14.184 55.9645 15L54.3805 16.584C53.8525 15.944 53.1645 15.448 52.3165 15.096C51.4845 14.728 50.5885 14.544 49.6285 14.544C47.7565 14.544 46.1725 15.192 44.8765 16.488C43.5965 17.8 42.9565 19.44 42.9565 21.408C42.9565 23.376 43.5965 25.016 44.8765 26.328C46.1725 27.624 47.7565 28.272 49.6285 28.272C51.3405 28.272 52.7645 27.792 53.9005 26.832C55.0365 25.872 55.6925 24.552 55.8685 22.872H49.6285V20.808H57.9565C58.0365 21.256 58.0765 21.688 58.0765 22.104ZM68.8473 30.384C66.3033 30.384 64.1753 29.528 62.4633 27.816C60.7673 26.104 59.9193 23.968 59.9193 21.408C59.9193 18.848 60.7673 16.72 62.4633 15.024C64.1593 13.296 66.2873 12.432 68.8473 12.432C71.4393 12.432 73.5433 13.368 75.1593 15.24L73.5753 16.776C72.3433 15.288 70.7673 14.544 68.8473 14.544C66.9433 14.544 65.3513 15.184 64.0713 16.464C62.8073 17.728 62.1753 19.376 62.1753 21.408C62.1753 23.44 62.8073 25.088 64.0713 26.352C65.3513 27.632 66.9433 28.272 68.8473 28.272C70.8473 28.272 72.5833 27.432 74.0553 25.752L75.6633 27.312C74.8473 28.288 73.8473 29.048 72.6633 29.592C71.4793 30.12 70.2073 30.384 68.8473 30.384ZM85.7251 30H83.5171V12.816H86.2051L94.5571 26.184H94.6531L94.5571 22.872V12.816H96.7651V30H94.4611L85.7251 15.984H85.6291L85.7251 19.296V30ZM102.436 30H100.228V12.816H102.436V30ZM111.756 14.928V30H109.548V14.928H104.748V12.816H116.556V14.928H111.756ZM129.234 25.416C129.234 26.92 128.682 28.128 127.578 29.04C126.458 29.936 125.098 30.384 123.498 30.384C122.074 30.384 120.818 29.968 119.73 29.136C118.642 28.304 117.89 27.168 117.474 25.728L119.586 24.864C119.73 25.376 119.93 25.84 120.186 26.256C120.442 26.672 120.738 27.032 121.074 27.336C121.426 27.624 121.81 27.856 122.226 28.032C122.642 28.192 123.082 28.272 123.546 28.272C124.554 28.272 125.378 28.016 126.018 27.504C126.658 26.976 126.978 26.28 126.978 25.416C126.978 24.696 126.714 24.08 126.186 23.568C125.69 23.072 124.762 22.592 123.402 22.128C122.026 21.632 121.17 21.296 120.834 21.12C119.01 20.192 118.098 18.824 118.098 17.016C118.098 15.752 118.602 14.672 119.61 13.776C120.634 12.88 121.89 12.432 123.378 12.432C124.69 12.432 125.826 12.768 126.786 13.44C127.746 14.096 128.386 14.92 128.706 15.912L126.642 16.776C126.45 16.136 126.066 15.608 125.49 15.192C124.93 14.76 124.242 14.544 123.426 14.544C122.562 14.544 121.834 14.784 121.242 15.264C120.65 15.712 120.354 16.296 120.354 17.016C120.354 17.608 120.586 18.12 121.05 18.552C121.562 18.984 122.674 19.496 124.386 20.088C126.13 20.68 127.37 21.408 128.106 22.272C128.858 23.12 129.234 24.168 129.234 25.416Z" fill="#A1A1AA"/>
<path d="M51.8271 46H50.3551V34.544H51.8271L55.8111 41.52H55.8751L59.8591 34.544H61.3311V46H59.8591V39.2L59.9231 37.28H59.8591L56.2751 43.568H55.4111L51.8271 37.28H51.7631L51.8271 39.2V46ZM64.218 43.6C64.218 43.984 64.378 44.304 64.698 44.56C65.0287 44.816 65.4127 44.944 65.85 44.944C66.4687 44.944 67.018 44.7147 67.498 44.256C67.9887 43.7973 68.234 43.2587 68.234 42.64C67.7753 42.2773 67.1353 42.096 66.314 42.096C65.7167 42.096 65.2153 42.24 64.81 42.528C64.4153 42.816 64.218 43.1733 64.218 43.6ZM66.122 37.904C67.21 37.904 68.0687 38.1973 68.698 38.784C69.3273 39.36 69.642 40.1547 69.642 41.168V46H68.234V44.912H68.17C67.562 45.808 66.7513 46.256 65.738 46.256C64.874 46.256 64.1487 46 63.562 45.488C62.986 44.976 62.698 44.336 62.698 43.568C62.698 42.7573 63.002 42.112 63.61 41.632C64.2287 41.152 65.05 40.912 66.074 40.912C66.9487 40.912 67.6687 41.072 68.234 41.392V41.056C68.234 40.544 68.0313 40.112 67.626 39.76C67.2207 39.3973 66.746 39.216 66.202 39.216C65.3807 39.216 64.73 39.5627 64.25 40.256L62.954 39.44C63.6687 38.416 64.7247 37.904 66.122 37.904ZM72.7743 46H71.3023V38.16H72.7103V39.44H72.7743C72.9236 39.024 73.2276 38.672 73.6863 38.384C74.1556 38.0853 74.6143 37.936 75.0623 37.936C75.4889 37.936 75.8516 38 76.1503 38.128L75.7023 39.552C75.5209 39.4773 75.2329 39.44 74.8383 39.44C74.2836 39.44 73.7983 39.664 73.3823 40.112C72.9769 40.56 72.7743 41.0827 72.7743 41.68V46ZM84.0889 46H82.3129L79.8649 42.304L78.6649 43.488V46H77.1929V34.544H78.6649V41.6L82.0569 38.16H83.9449V38.224L80.8889 41.264L84.0889 45.936V46ZM88.2129 46.256C87.0609 46.256 86.1115 45.8613 85.3649 45.072C84.6182 44.2827 84.2449 43.2853 84.2449 42.08C84.2449 40.8853 84.6075 39.8933 85.3329 39.104C86.0582 38.304 86.9862 37.904 88.1169 37.904C89.2795 37.904 90.2022 38.2827 90.8849 39.04C91.5782 39.7867 91.9249 40.8373 91.9249 42.192L91.9089 42.352H85.7489C85.7702 43.12 86.0262 43.7387 86.5169 44.208C87.0075 44.6773 87.5942 44.912 88.2769 44.912C89.2155 44.912 89.9515 44.4427 90.4849 43.504L91.7969 44.144C91.4449 44.8053 90.9542 45.3227 90.3249 45.696C89.7062 46.0693 89.0022 46.256 88.2129 46.256ZM85.8609 41.136H90.3569C90.3142 40.592 90.0902 40.144 89.6849 39.792C89.2902 39.4293 88.7569 39.248 88.0849 39.248C87.5302 39.248 87.0502 39.4187 86.6449 39.76C86.2502 40.1013 85.9889 40.56 85.8609 41.136ZM96.1406 46.128C95.5006 46.128 94.9673 45.9307 94.5406 45.536C94.1246 45.1413 93.9113 44.592 93.9006 43.888V39.504H92.5246V38.16H93.9006V35.76H95.3726V38.16H97.2926V39.504H95.3726V43.408C95.3726 43.9307 95.474 44.288 95.6766 44.48C95.8793 44.6613 96.1086 44.752 96.3646 44.752C96.482 44.752 96.594 44.7413 96.7006 44.72C96.818 44.688 96.9246 44.6507 97.0206 44.608L97.4846 45.92C97.1006 46.0587 96.6526 46.128 96.1406 46.128ZM102.611 44.912C103.315 44.912 103.907 44.6453 104.387 44.112C104.867 43.5893 105.107 42.912 105.107 42.08C105.107 41.2587 104.867 40.5813 104.387 40.048C103.907 39.5147 103.315 39.248 102.611 39.248C101.896 39.248 101.299 39.5147 100.819 40.048C100.35 40.5813 100.115 41.2587 100.115 42.08C100.115 42.912 100.35 43.5947 100.819 44.128C101.299 44.6507 101.896 44.912 102.611 44.912ZM102.851 46.256C102.275 46.256 101.747 46.1333 101.267 45.888C100.798 45.6427 100.435 45.3173 100.179 44.912H100.115L100.179 46V49.456H98.707V38.16H100.115V39.248H100.179C100.435 38.8427 100.798 38.5173 101.267 38.272C101.747 38.0267 102.275 37.904 102.851 37.904C103.886 37.904 104.76 38.3093 105.475 39.12C106.211 39.9413 106.579 40.928 106.579 42.08C106.579 43.2427 106.211 44.2293 105.475 45.04C104.76 45.8507 103.886 46.256 102.851 46.256ZM109.243 34.544V46H107.771V34.544H109.243ZM112.031 43.6C112.031 43.984 112.191 44.304 112.511 44.56C112.841 44.816 113.225 44.944 113.663 44.944C114.281 44.944 114.831 44.7147 115.311 44.256C115.801 43.7973 116.047 43.2587 116.047 42.64C115.588 42.2773 114.948 42.096 114.127 42.096C113.529 42.096 113.028 42.24 112.623 42.528C112.228 42.816 112.031 43.1733 112.031 43.6ZM113.935 37.904C115.023 37.904 115.881 38.1973 116.511 38.784C117.14 39.36 117.455 40.1547 117.455 41.168V46H116.047V44.912H115.983C115.375 45.808 114.564 46.256 113.551 46.256C112.687 46.256 111.961 46 111.375 45.488C110.799 44.976 110.511 44.336 110.511 43.568C110.511 42.7573 110.815 42.112 111.423 41.632C112.041 41.152 112.863 40.912 113.887 40.912C114.761 40.912 115.481 41.072 116.047 41.392V41.056C116.047 40.544 115.844 40.112 115.439 39.76C115.033 39.3973 114.559 39.216 114.015 39.216C113.193 39.216 112.543 39.5627 112.062 40.256L110.767 39.44C111.481 38.416 112.537 37.904 113.935 37.904ZM122.621 46.256C121.458 46.256 120.493 45.8613 119.725 45.072C118.967 44.2613 118.589 43.264 118.589 42.08C118.589 40.8747 118.967 39.8773 119.725 39.088C120.493 38.2987 121.458 37.904 122.621 37.904C123.421 37.904 124.119 38.1067 124.717 38.512C125.314 38.9067 125.762 39.456 126.061 40.16L124.717 40.72C124.301 39.7387 123.57 39.248 122.525 39.248C121.853 39.248 121.271 39.52 120.781 40.064C120.301 40.608 120.061 41.28 120.061 42.08C120.061 42.88 120.301 43.552 120.781 44.096C121.271 44.64 121.853 44.912 122.525 44.912C123.602 44.912 124.359 44.4213 124.797 43.44L126.109 44C125.821 44.704 125.367 45.2587 124.749 45.664C124.141 46.0587 123.431 46.256 122.621 46.256ZM130.838 46.256C129.686 46.256 128.737 45.8613 127.99 45.072C127.243 44.2827 126.87 43.2853 126.87 42.08C126.87 40.8853 127.233 39.8933 127.958 39.104C128.683 38.304 129.611 37.904 130.742 37.904C131.905 37.904 132.827 38.2827 133.51 39.04C134.203 39.7867 134.55 40.8373 134.55 42.192L134.534 42.352H128.374C128.395 43.12 128.651 43.7387 129.142 44.208C129.633 44.6773 130.219 44.912 130.902 44.912C131.841 44.912 132.577 44.4427 133.11 43.504L134.422 44.144C134.07 44.8053 133.579 45.3227 132.95 45.696C132.331 46.0693 131.627 46.256 130.838 46.256ZM128.486 41.136H132.982C132.939 40.592 132.715 40.144 132.31 39.792C131.915 39.4293 131.382 39.248 130.71 39.248C130.155 39.248 129.675 39.4187 129.27 39.76C128.875 40.1013 128.614 40.56 128.486 41.136Z" fill="#0176FA"/>
<defs>
<filter id="filter0_f_71_810" x="0" y="-4" width="139" height="65" filterUnits="userSpaceOnUse" color-interpolation-filters="sRGB">
<feFlood flood-opacity="0" result="BackgroundImageFix"/>
<feBlend mode="normal" in="SourceGraphic" in2="BackgroundImageFix" result="shape"/>
<feGaussianBlur stdDeviation="2" result="effect1_foregroundBlur_71_810"/>
</filter>
</defs>
</svg>
