<svg width="59" height="57" viewBox="0 0 59 57" fill="none" xmlns="http://www.w3.org/2000/svg">
<path d="M39.3559 10.7548H19.6446C17.2797 10.7548 15.0116 11.6967 13.3393 13.3732C11.667 15.0498 10.7275 17.3236 10.7275 19.6946V36.6333C10.7275 37.8073 10.9582 38.9698 11.4064 40.0545C11.8544 41.1391 12.5113 42.1246 13.3393 42.9547C15.0116 44.6313 17.2797 45.5732 19.6446 45.5732H39.3559C41.7194 45.5682 43.9846 44.6247 45.6558 42.9492C47.327 41.2737 48.2681 39.0028 48.273 36.6333V19.6946C48.2681 17.3251 47.327 15.0542 45.6558 13.3787C43.9846 11.7032 41.7194 10.7597 39.3559 10.7548ZM32.5039 26.4136C31.5803 26.9417 30.5353 27.2195 29.4721 27.2195C28.4089 27.2195 27.3639 26.9417 26.4403 26.4136L13.581 19.0171C13.7473 17.5214 14.4577 16.1396 15.5764 15.1361C16.695 14.1327 18.1435 13.5779 19.6446 13.5779H39.3559C40.8558 13.582 42.3021 14.1382 43.4199 15.141C44.5378 16.1436 45.2493 17.523 45.4195 19.0171L32.5039 26.4136Z" fill="#949494"/>
</svg>
