<svg width="52" height="59" viewBox="0 0 52 59" fill="none" xmlns="http://www.w3.org/2000/svg">
<path d="M35.9252 23.8161V20.8846C35.9989 19.2094 35.6436 17.543 34.8924 16.0411C34.1411 14.5392 33.0186 13.2511 31.6296 12.297C30.2407 11.343 28.6307 10.7543 26.9503 10.5858C25.2698 10.4174 23.5738 10.6747 22.0207 11.3339C20.1525 12.1256 18.5717 13.4637 17.489 15.1701C16.4064 16.8765 15.8733 18.8698 15.9609 20.8846V23.8161C14.5403 23.924 13.2097 24.5477 12.223 25.5681C11.2364 26.5884 10.6629 27.9339 10.6123 29.3474V42.143C10.6608 43.6852 11.3235 45.1453 12.4551 46.2029C13.5866 47.2606 15.0945 47.8296 16.648 47.7849H35.2194C36.773 47.8296 38.2809 47.2606 39.4123 46.2029C40.5439 45.1453 41.2067 43.6852 41.2552 42.143V29.3474C41.205 27.9368 40.6341 26.5938 39.6513 25.5738C38.6685 24.5539 37.3424 23.9283 35.9252 23.8161ZM18.7466 20.8846C18.7418 19.9465 18.9249 19.0168 19.2852 18.1495C19.6454 17.2823 20.1756 16.4948 20.8452 15.8327C22.1961 14.4937 24.0248 13.7383 25.9337 13.7308C27.8433 13.7357 29.6733 14.491 31.0236 15.8314C32.3738 17.172 33.1346 18.9888 33.1394 20.8846V23.7608H18.7466V20.8846ZM32.378 41.9033H19.5637C19.0712 41.9033 18.5989 41.709 18.2506 41.3633C17.9023 41.0175 17.7066 40.5485 17.7066 40.0596C17.7066 39.5706 17.9023 39.1017 18.2506 38.7559C18.5989 38.4101 19.0712 38.2158 19.5637 38.2158H32.4523C32.9448 38.2158 33.4172 38.4101 33.7655 38.7559C34.1138 39.1017 34.3094 39.5706 34.3094 40.0596C34.3094 40.5485 34.1138 41.0175 33.7655 41.3633C33.4172 41.709 32.9448 41.9033 32.4523 41.9033H32.378Z" fill="#949494"/>
</svg>
