<svg width="279" height="64" viewBox="0 0 279 64" fill="none" xmlns="http://www.w3.org/2000/svg">
<rect width="279" height="64" rx="32" fill="white" fill-opacity="0.1"/>
<rect x="1.5" y="1.5" width="276" height="61" rx="30.5" stroke="white" stroke-opacity="0.1" stroke-width="3"/>
<path d="M53.286 35.416C53.286 36.92 52.734 38.128 51.63 39.04C50.51 39.936 49.15 40.384 47.55 40.384C46.126 40.384 44.87 39.968 43.782 39.136C42.694 38.304 41.942 37.168 41.526 35.728L43.638 34.864C43.782 35.376 43.982 35.84 44.238 36.256C44.494 36.672 44.79 37.032 45.126 37.336C45.478 37.624 45.862 37.856 46.278 38.032C46.694 38.192 47.134 38.272 47.598 38.272C48.606 38.272 49.43 38.016 50.07 37.504C50.71 36.976 51.03 36.28 51.03 35.416C51.03 34.696 50.766 34.08 50.238 33.568C49.742 33.072 48.814 32.592 47.454 32.128C46.078 31.632 45.222 31.296 44.886 31.12C43.062 30.192 42.15 28.824 42.15 27.016C42.15 25.752 42.654 24.672 43.662 23.776C44.686 22.88 45.942 22.432 47.43 22.432C48.742 22.432 49.878 22.768 50.838 23.44C51.798 24.096 52.438 24.92 52.758 25.912L50.694 26.776C50.502 26.136 50.118 25.608 49.542 25.192C48.982 24.76 48.294 24.544 47.478 24.544C46.614 24.544 45.886 24.784 45.294 25.264C44.702 25.712 44.406 26.296 44.406 27.016C44.406 27.608 44.638 28.12 45.102 28.552C45.614 28.984 46.726 29.496 48.438 30.088C50.182 30.68 51.422 31.408 52.158 32.272C52.91 33.12 53.286 34.168 53.286 35.416ZM57.9596 22.816H60.1676V28.24L60.0716 29.872H60.1676C60.5036 29.296 61.0156 28.816 61.7036 28.432C62.4076 28.048 63.1356 27.856 63.8876 27.856C65.3276 27.856 66.4316 28.272 67.1996 29.104C67.9836 29.92 68.3756 31.088 68.3756 32.608V40H66.1676V33.04C66.1676 30.928 65.2316 29.872 63.3596 29.872C62.4636 29.872 61.7036 30.248 61.0796 31C60.4716 31.736 60.1676 32.6 60.1676 33.592V40H57.9596V22.816ZM72.6954 34.12C72.6954 32.312 73.2634 30.816 74.3994 29.632C75.5514 28.448 76.9994 27.856 78.7434 27.856C80.4874 27.856 81.9274 28.448 83.0634 29.632C84.2154 30.816 84.7914 32.312 84.7914 34.12C84.7914 35.944 84.2154 37.44 83.0634 38.608C81.9274 39.792 80.4874 40.384 78.7434 40.384C76.9994 40.384 75.5514 39.792 74.3994 38.608C73.2634 37.424 72.6954 35.928 72.6954 34.12ZM74.9034 34.12C74.9034 35.384 75.2714 36.408 76.0074 37.192C76.7434 37.976 77.6554 38.368 78.7434 38.368C79.8314 38.368 80.7434 37.976 81.4794 37.192C82.2154 36.408 82.5834 35.384 82.5834 34.12C82.5834 32.872 82.2154 31.856 81.4794 31.072C80.7274 30.272 79.8154 29.872 78.7434 29.872C77.6714 29.872 76.7594 30.272 76.0074 31.072C75.2714 31.856 74.9034 32.872 74.9034 34.12ZM94.8399 38.368C95.8959 38.368 96.7839 37.968 97.5039 37.168C98.2239 36.384 98.5839 35.368 98.5839 34.12C98.5839 32.888 98.2239 31.872 97.5039 31.072C96.7839 30.272 95.8959 29.872 94.8399 29.872C93.7679 29.872 92.8719 30.272 92.1519 31.072C91.4479 31.872 91.0959 32.888 91.0959 34.12C91.0959 35.368 91.4479 36.392 92.1519 37.192C92.8719 37.976 93.7679 38.368 94.8399 38.368ZM95.1999 40.384C94.3359 40.384 93.5439 40.2 92.8239 39.832C92.1199 39.464 91.5759 38.976 91.1919 38.368H91.0959L91.1919 40V45.184H88.9839V28.24H91.0959V29.872H91.1919C91.5759 29.264 92.1199 28.776 92.8239 28.408C93.5439 28.04 94.3359 27.856 95.1999 27.856C96.7519 27.856 98.0639 28.464 99.1359 29.68C100.24 30.912 100.792 32.392 100.792 34.12C100.792 35.864 100.24 37.344 99.1359 38.56C98.0639 39.776 96.7519 40.384 95.1999 40.384ZM120.891 40.384C118.347 40.384 116.219 39.528 114.507 37.816C112.811 36.104 111.963 33.968 111.963 31.408C111.963 28.848 112.811 26.72 114.507 25.024C116.203 23.296 118.331 22.432 120.891 22.432C123.483 22.432 125.587 23.368 127.203 25.24L125.619 26.776C124.387 25.288 122.811 24.544 120.891 24.544C118.987 24.544 117.395 25.184 116.115 26.464C114.851 27.728 114.219 29.376 114.219 31.408C114.219 33.44 114.851 35.088 116.115 36.352C117.395 37.632 118.987 38.272 120.891 38.272C122.891 38.272 124.627 37.432 126.099 35.752L127.707 37.312C126.891 38.288 125.891 39.048 124.707 39.592C123.523 40.12 122.251 40.384 120.891 40.384ZM131.163 34.12C131.163 32.312 131.731 30.816 132.867 29.632C134.019 28.448 135.467 27.856 137.211 27.856C138.955 27.856 140.395 28.448 141.531 29.632C142.683 30.816 143.259 32.312 143.259 34.12C143.259 35.944 142.683 37.44 141.531 38.608C140.395 39.792 138.955 40.384 137.211 40.384C135.467 40.384 134.019 39.792 132.867 38.608C131.731 37.424 131.163 35.928 131.163 34.12ZM133.371 34.12C133.371 35.384 133.739 36.408 134.475 37.192C135.211 37.976 136.123 38.368 137.211 38.368C138.299 38.368 139.211 37.976 139.947 37.192C140.683 36.408 141.051 35.384 141.051 34.12C141.051 32.872 140.683 31.856 139.947 31.072C139.195 30.272 138.283 29.872 137.211 29.872C136.139 29.872 135.227 30.272 134.475 31.072C133.739 31.856 133.371 32.872 133.371 34.12ZM149.755 22.816V40H147.547V22.816H149.755ZM157.054 22.816V40H154.846V22.816H157.054ZM167.307 40.384C165.579 40.384 164.155 39.792 163.035 38.608C161.915 37.424 161.355 35.928 161.355 34.12C161.355 32.328 161.899 30.84 162.987 29.656C164.075 28.456 165.467 27.856 167.163 27.856C168.907 27.856 170.291 28.424 171.315 29.56C172.355 30.68 172.875 32.256 172.875 34.288L172.851 34.528H163.611C163.643 35.68 164.027 36.608 164.763 37.312C165.499 38.016 166.379 38.368 167.403 38.368C168.811 38.368 169.915 37.664 170.715 36.256L172.683 37.216C172.155 38.208 171.419 38.984 170.475 39.544C169.547 40.104 168.491 40.384 167.307 40.384ZM163.779 32.704H170.523C170.459 31.888 170.123 31.216 169.515 30.688C168.923 30.144 168.123 29.872 167.115 29.872C166.283 29.872 165.563 30.128 164.955 30.64C164.363 31.152 163.971 31.84 163.779 32.704ZM182.787 40.384C181.043 40.384 179.595 39.792 178.443 38.608C177.307 37.392 176.739 35.896 176.739 34.12C176.739 32.312 177.307 30.816 178.443 29.632C179.595 28.448 181.043 27.856 182.787 27.856C183.987 27.856 185.035 28.16 185.931 28.768C186.827 29.36 187.499 30.184 187.947 31.24L185.931 32.08C185.307 30.608 184.211 29.872 182.643 29.872C181.635 29.872 180.763 30.28 180.027 31.096C179.307 31.912 178.947 32.92 178.947 34.12C178.947 35.32 179.307 36.328 180.027 37.144C180.763 37.96 181.635 38.368 182.643 38.368C184.259 38.368 185.395 37.632 186.051 36.16L188.019 37C187.587 38.056 186.907 38.888 185.979 39.496C185.067 40.088 184.003 40.384 182.787 40.384ZM196.889 40.192C195.929 40.192 195.129 39.896 194.489 39.304C193.865 38.712 193.545 37.888 193.529 36.832V30.256H191.465V28.24H193.529V24.64H195.737V28.24H198.617V30.256H195.737V36.112C195.737 36.896 195.889 37.432 196.193 37.72C196.497 37.992 196.841 38.128 197.225 38.128C197.401 38.128 197.569 38.112 197.729 38.08C197.905 38.032 198.065 37.976 198.209 37.912L198.905 39.88C198.329 40.088 197.657 40.192 196.889 40.192ZM206.091 24.184C206.091 24.616 205.939 24.984 205.635 25.288C205.331 25.592 204.963 25.744 204.531 25.744C204.099 25.744 203.731 25.592 203.427 25.288C203.123 24.984 202.971 24.616 202.971 24.184C202.971 23.752 203.123 23.384 203.427 23.08C203.731 22.776 204.099 22.624 204.531 22.624C204.963 22.624 205.331 22.776 205.635 23.08C205.939 23.384 206.091 23.752 206.091 24.184ZM205.635 28.24V40H203.427V28.24H205.635ZM210.119 34.12C210.119 32.312 210.687 30.816 211.823 29.632C212.975 28.448 214.423 27.856 216.167 27.856C217.911 27.856 219.351 28.448 220.487 29.632C221.639 30.816 222.215 32.312 222.215 34.12C222.215 35.944 221.639 37.44 220.487 38.608C219.351 39.792 217.911 40.384 216.167 40.384C214.423 40.384 212.975 39.792 211.823 38.608C210.687 37.424 210.119 35.928 210.119 34.12ZM212.327 34.12C212.327 35.384 212.695 36.408 213.431 37.192C214.167 37.976 215.079 38.368 216.167 38.368C217.255 38.368 218.167 37.976 218.903 37.192C219.639 36.408 220.007 35.384 220.007 34.12C220.007 32.872 219.639 31.856 218.903 31.072C218.151 30.272 217.239 29.872 216.167 29.872C215.095 29.872 214.183 30.272 213.431 31.072C212.695 31.856 212.327 32.872 212.327 34.12ZM226.386 28.24H228.498V29.872H228.594C228.93 29.296 229.442 28.816 230.13 28.432C230.834 28.048 231.562 27.856 232.314 27.856C233.754 27.856 234.858 28.272 235.626 29.104C236.41 29.92 236.802 31.088 236.802 32.608V40H234.594V32.752C234.546 30.832 233.578 29.872 231.69 29.872C230.81 29.872 230.074 30.232 229.482 30.952C228.89 31.656 228.594 32.504 228.594 33.496V40H226.386V28.24Z" fill="#DADADA"/>
</svg>
